<svg width="34" height="32" viewBox="0 0 34 32" fill="none" xmlns="http://www.w3.org/2000/svg">
<path d="M33.8318 10.4711L32.0462 2.70222C31.6721 1.10222 30.3456 0 28.7981 0H5.17755C3.64705 0 2.30362 1.12 1.94651 2.70222L0.160932 10.4711C-0.247199 12.2844 0.126921 14.1333 1.21527 15.5911C1.35132 15.7867 1.53838 15.9289 1.69142 16.1067V28.4444C1.69142 30.4 3.22192 32 5.09252 32H28.9002C30.7708 32 32.3013 30.4 32.3013 28.4444V16.1067C32.4543 15.9467 32.6414 15.7867 32.7774 15.6089C33.8658 14.1511 34.2569 12.2844 33.8318 10.4711ZM28.7471 3.53778L30.5327 11.3067C30.7028 12.0533 30.5497 12.8 30.1076 13.3867C29.8695 13.7067 29.3593 14.2222 28.5091 14.2222C27.4717 14.2222 26.5704 13.3511 26.4514 12.1956L25.4651 3.55556L28.7471 3.53778ZM18.6969 3.55556H22.03L22.9483 11.5911C23.0333 12.2844 22.8292 12.9778 22.3871 13.4933C22.013 13.9556 21.4688 14.2222 20.7716 14.2222C19.6322 14.2222 18.6969 13.1733 18.6969 11.8933V3.55556ZM11.0274 11.5911L11.9627 3.55556H15.2958V11.8933C15.2958 13.1733 14.3605 14.2222 13.1021 14.2222C12.5239 14.2222 11.9967 13.9556 11.5886 13.4933C11.3766 13.2326 11.2176 12.9295 11.1211 12.6025C11.0246 12.2755 10.9928 11.9314 11.0274 11.5911ZM3.45999 11.3067L5.17755 3.55556H8.52762L7.54131 12.1956C7.40526 13.3511 6.52098 14.2222 5.48364 14.2222C4.65038 14.2222 4.12321 13.7067 3.90214 13.3867C3.44299 12.8178 3.28994 12.0533 3.45999 11.3067ZM5.09252 28.4444V17.7244C5.22856 17.7422 5.3476 17.7778 5.48364 17.7778C6.96312 17.7778 8.30655 17.1378 9.29287 16.0889C10.3132 17.1556 11.6736 17.7778 13.2211 17.7778C14.7006 17.7778 16.027 17.1378 17.0134 16.1244C18.0167 17.1378 19.3771 17.7778 20.9076 17.7778C22.3361 17.7778 23.6965 17.1556 24.7168 16.0889C25.7032 17.1378 27.0466 17.7778 28.5261 17.7778C28.6621 17.7778 28.7811 17.7422 28.9172 17.7244V28.4444H5.09252Z" fill="#5B2100"/>
</svg>
