<svg width="32" height="32" viewBox="0 0 32 32" fill="none" xmlns="http://www.w3.org/2000/svg">
<path d="M4.61421 30.5858C3.83317 31.3668 2.56684 31.3668 1.78579 30.5858L1.41421 30.2142C0.633165 29.4332 0.633165 28.1668 1.41421 27.3858L11.3858 17.4142C12.1668 16.6332 12.1668 15.3668 11.3858 14.5858L1.41421 4.61421C0.633165 3.83317 0.633165 2.56683 1.41421 1.78579L1.78579 1.41421C2.56683 0.633165 3.83317 0.633165 4.61421 1.41421L14.5858 11.3858C15.3668 12.1668 16.6332 12.1668 17.4142 11.3858L27.3858 1.41421C28.1668 0.633165 29.4332 0.633165 30.2142 1.41421L30.5858 1.78579C31.3668 2.56684 31.3668 3.83316 30.5858 4.61421L20.6142 14.5858C19.8332 15.3668 19.8332 16.6332 20.6142 17.4142L30.5858 27.3858C31.3668 28.1668 31.3668 29.4332 30.5858 30.2142L30.2142 30.5858C29.4332 31.3668 28.1668 31.3668 27.3858 30.5858L17.4142 20.6142C16.6332 19.8332 15.3668 19.8332 14.5858 20.6142L4.61421 30.5858Z" fill="#5B2100"/>
</svg>
