<svg width="37" height="36" viewBox="0 0 37 36" fill="none" xmlns="http://www.w3.org/2000/svg">
<path d="M3 11L18.5528 18.9337L34 11.0466M18.5528 33V18.9181" stroke="#5B2100" stroke-width="3" stroke-linecap="round" stroke-linejoin="round"/>
<path d="M14.9392 2.7679L5.77535 7.51931C3.69891 8.59118 2 11.2788 2 13.4866V22.5254C2 24.7332 3.69891 27.4208 5.77535 28.4927L14.9392 33.2441C16.8955 34.252 20.1045 34.252 22.0608 33.2441L31.2246 28.4927C33.3011 27.4208 35 24.7332 35 22.5254V13.4866C35 11.2788 33.3011 8.59118 31.2246 7.51931L22.0608 2.7679C20.0874 1.74403 16.8955 1.74403 14.9392 2.7679V2.7679Z" stroke="#5B2100" stroke-width="3" stroke-linecap="round" stroke-linejoin="round"/>
<path d="M27 20V13.9934L11 5" stroke="#5B2100" stroke-width="3" stroke-linecap="round" stroke-linejoin="round"/>
</svg>
