<svg width="41" height="32" viewBox="0 0 41 32" fill="none" xmlns="http://www.w3.org/2000/svg">
<path d="M36.0061 8.85433C35.632 8.31894 35.02 8 34.3668 8H29.8182V1C29.8182 0.447715 29.3705 0 28.8182 0H3.72727C1.67727 0 0 1.8 0 4V25C0 25.5523 0.447715 26 1 26H3.72727C3.72727 29.32 6.22455 32 9.31818 32C12.4118 32 14.9091 29.32 14.9091 26H26.0909C26.0909 29.32 28.5882 32 31.6818 32C34.7755 32 37.2727 29.32 37.2727 26H40C40.5523 26 41 25.5523 41 25V17.2592C41 16.4396 40.7482 15.6397 40.2787 14.9679L36.0061 8.85433ZM34.4773 11L38.13 16H29.8182V11H34.4773ZM9.31818 28C8.29318 28 7.45455 27.1 7.45455 26C7.45455 24.9 8.29318 24 9.31818 24C10.3432 24 11.1818 24.9 11.1818 26C11.1818 27.1 10.3432 28 9.31818 28ZM13.4555 22C12.4305 20.78 10.9768 20 9.31818 20C7.65955 20 6.20591 20.78 5.18091 22H3.72727V4H26.0909V22H13.4555ZM31.6818 28C30.6568 28 29.8182 27.1 29.8182 26C29.8182 24.9 30.6568 24 31.6818 24C32.7068 24 33.5455 24.9 33.5455 26C33.5455 27.1 32.7068 28 31.6818 28Z" fill="#5B2100"/>
</svg>
