<svg width="34" height="34" viewBox="0 0 34 34" fill="none" xmlns="http://www.w3.org/2000/svg">
<path d="M20.0248 2.50399C17.9824 1.19544 15.6073 0.499948 13.1814 0.5C11.1379 0.499843 9.12461 0.993342 7.31299 1.93848C5.50137 2.88362 3.9451 4.2524 2.77675 5.92827C1.6084 7.60414 0.862582 9.53744 0.60284 11.5635C0.343099 13.5896 0.57713 15.6484 1.285 17.5646C1.99286 19.4808 3.15359 21.1975 4.66828 22.5687C6.18298 23.9399 8.00678 24.9248 9.98434 25.4396C11.9619 25.9545 14.0347 25.984 16.0261 25.5256C17.8669 25.1019 19.5878 24.2729 21.0643 23.1014L30.6596 32.6919C31.2205 33.2526 32.1297 33.2526 32.6907 32.6919C33.2521 32.1308 33.2521 31.2208 32.6907 30.6597L23.0989 21.0727C24.5106 19.3019 25.4238 17.1829 25.7392 14.9349C26.0762 12.5336 25.7169 10.086 24.704 7.88262C23.6911 5.67923 22.0671 3.81254 20.0248 2.50399ZM6.24705 6.24385C8.08611 4.4057 10.5805 3.37299 13.1814 3.37299C15.7824 3.37299 18.2767 4.4057 20.1158 6.24385C21.9549 8.08199 22.988 10.575 22.988 13.1744C22.988 15.7738 21.9549 18.2669 20.1158 20.105C18.2767 21.9431 15.7824 22.9759 13.1814 22.9759C10.5805 22.9759 8.08611 21.9431 6.24705 20.105C4.40799 18.2669 3.37486 15.7738 3.37486 13.1744C3.37486 10.575 4.40799 8.08199 6.24705 6.24385Z" fill="#5B2100" stroke="#5B2100"/>
</svg>
