<svg width="40" height="34" viewBox="0 0 40 34" fill="none" xmlns="http://www.w3.org/2000/svg">
<path d="M3.12262 33.5H3.12608L36.8739 33.5L36.8774 33.5C37.2405 33.4975 37.5998 33.4239 37.9328 33.2832C38.2652 33.1427 38.5651 32.938 38.8126 32.6802C39.0647 32.4215 39.2565 32.1127 39.3727 31.7739C39.489 31.4349 39.5264 31.0754 39.4817 30.7205C39.4816 30.7198 39.4815 30.719 39.4814 30.7182L36.9625 9.36906C36.8902 8.74471 36.5748 8.17472 36.0874 7.76607C35.6011 7.35836 34.9767 7.1383 34.3353 7.14151H28.2094C27.9182 5.36474 26.9885 3.73562 25.5758 2.52836C24.0456 1.22067 22.0574 0.5 20 0.5C17.9426 0.5 15.9544 1.22067 14.4242 2.52836C13.0115 3.73561 12.0818 5.36474 11.7906 7.14151H5.6647C5.02331 7.1383 4.39888 7.35836 3.91259 7.76607C3.4253 8.1746 3.11004 8.74437 3.03757 9.3685C3.03754 9.36869 3.03752 9.36887 3.0375 9.36906L0.518602 30.7182C0.518503 30.719 0.518405 30.7197 0.518307 30.7205C0.473629 31.0754 0.511013 31.4349 0.627311 31.7739C0.743562 32.1128 0.93537 32.4216 1.18753 32.6803C1.43495 32.938 1.73484 33.1428 2.06716 33.2832C2.40016 33.4239 2.75952 33.4975 3.12262 33.5ZM37.0396 31.0903L37.0328 31.0969L37.0262 31.1038C37.01 31.1209 36.9883 31.1364 36.9616 31.1477L37.1558 31.6084L36.9616 31.1477C36.9347 31.159 36.9045 31.1653 36.8731 31.1653H3.12692C3.0955 31.1653 3.06526 31.159 3.03845 31.1477L2.84424 31.6084L3.03844 31.1477C3.01166 31.1364 2.98999 31.1209 2.9738 31.1038L2.96721 31.0969L2.96037 31.0903C2.94549 31.0758 2.93664 31.0606 2.93196 31.047C2.92734 31.0335 2.92629 31.0202 2.92827 31.0074L2.92961 30.9986L2.93065 30.9899L5.4502 9.63535L5.45126 9.62641L5.45199 9.61743C5.45436 9.58834 5.469 9.55395 5.50368 9.5246C5.53926 9.49449 5.59144 9.47441 5.64995 9.47599L5.64994 9.47617H5.66338H11.6929V13.6475C11.6929 13.9673 11.8284 14.2674 12.0583 14.4836C12.2872 14.6988 12.5914 14.8148 12.9027 14.8148C13.2139 14.8148 13.5181 14.6988 13.747 14.4836L13.4045 14.1193L13.747 14.4836C13.977 14.2674 14.1124 13.9674 14.1124 13.6475V9.47617H25.8876V13.6475C25.8876 13.9673 26.023 14.2674 26.253 14.4836C26.4819 14.6988 26.7861 14.8148 27.0973 14.8148C27.4086 14.8148 27.7128 14.6988 27.9417 14.4836C28.1716 14.2674 28.3071 13.9673 28.3071 13.6475V9.47617H34.3366V9.47635L34.3501 9.47599C34.4086 9.47441 34.4607 9.49449 34.4963 9.5246C34.531 9.55396 34.5456 9.58835 34.548 9.61744L34.5487 9.62641L34.5498 9.63535L37.0694 30.9899L37.0704 30.9986L37.0717 31.0074C37.0737 31.0202 37.0727 31.0335 37.068 31.0469L37.541 31.2092L37.068 31.047C37.0634 31.0606 37.0545 31.0758 37.0396 31.0903ZM20 2.80288C21.4565 2.8056 22.8568 3.31159 23.9352 4.21799C24.8608 4.99592 25.4931 6.0209 25.7562 7.14151H14.2438C14.5069 6.0209 15.1392 4.99592 16.0648 4.21799C17.1432 3.31159 18.5435 2.8056 20 2.80288Z" fill="#5B2100" stroke="#5B2100"/>
</svg>
