<svg width="40" height="35" viewBox="0 0 40 35" fill="none" xmlns="http://www.w3.org/2000/svg">
<path d="M35.0525 12.471L33.2669 4.7021C32.8928 3.1021 31.5663 1.99988 30.0189 1.99988H6.39825C4.86776 1.99988 3.52432 3.11988 3.16721 4.7021L1.38164 12.471C0.973504 14.2843 1.34762 16.1332 2.43597 17.591C2.57202 17.7865 2.75908 17.9288 2.91213 18.1065V30.4443C2.91213 32.3999 4.44262 33.9999 6.31322 33.9999H30.1209C31.9915 33.9999 33.522 32.3999 33.522 30.4443V18.1065C33.675 17.9465 33.8621 17.7865 33.9981 17.6088C35.0865 16.151 35.4776 14.2843 35.0525 12.471ZM29.9678 5.53766L31.7534 13.3065C31.9235 14.0532 31.7704 14.7999 31.3283 15.3865C31.0902 15.7065 30.58 16.2221 29.7298 16.2221C28.6924 16.2221 27.7911 15.351 27.6721 14.1954L26.6858 5.55543L29.9678 5.53766ZM19.9176 5.55543H23.2507L24.169 13.591C24.254 14.2843 24.0499 14.9777 23.6078 15.4932C23.2337 15.9554 22.6895 16.2221 21.9923 16.2221C20.8529 16.2221 19.9176 15.1732 19.9176 13.8932V5.55543ZM12.2481 13.591L13.1834 5.55543H16.5165V13.8932C16.5165 15.1732 15.5812 16.2221 14.3228 16.2221C13.7446 16.2221 13.2174 15.9554 12.8093 15.4932C12.5973 15.2325 12.4383 14.9294 12.3418 14.6024C12.2453 14.2754 12.2135 13.9313 12.2481 13.591ZM4.6807 13.3065L6.39825 5.55543H9.74833L8.76201 14.1954C8.62597 15.351 7.74168 16.2221 6.70435 16.2221C5.87108 16.2221 5.34391 15.7065 5.12284 15.3865C4.66369 14.8177 4.51064 14.0532 4.6807 13.3065ZM6.31322 30.4443V19.7243C6.44927 19.7421 6.5683 19.7777 6.70435 19.7777C8.18382 19.7777 9.52726 19.1377 10.5136 18.0888C11.5339 19.1554 12.8943 19.7777 14.4418 19.7777C15.9213 19.7777 17.2477 19.1377 18.2341 18.1243C19.2374 19.1377 20.5978 19.7777 22.1283 19.7777C23.5568 19.7777 24.9172 19.1554 25.9375 18.0888C26.9239 19.1377 28.2673 19.7777 29.7468 19.7777C29.8828 19.7777 30.0018 19.7421 30.1379 19.7243V30.4443H6.31322Z" fill="#5B2100"/>
<rect x="1.2207" y="2.54822" width="3.31759" height="47.2381" rx="1" transform="rotate(-50.1838 1.2207 2.54822)" fill="#FEF8FB"/>
<rect y="4.13513" width="3.31759" height="47.2381" rx="1" transform="rotate(-50.1838 0 4.13513)" fill="#5B2100"/>
</svg>
