<svg width="34" height="34" viewBox="0 0 34 34" fill="none" xmlns="http://www.w3.org/2000/svg">
<path d="M13.1814 0.5C15.6073 0.499948 17.9824 1.19544 20.0248 2.50399C22.0671 3.81254 23.6911 5.67923 24.704 7.88262C25.7169 10.086 26.0762 12.5336 25.7392 14.9349C25.4238 17.1829 24.5106 19.3019 23.0989 21.0727L32.6907 30.6597C33.2521 31.2208 33.2521 32.1308 32.6907 32.6919C32.1297 33.2526 31.2205 33.2526 30.6596 32.6919L21.0643 23.1014C19.5878 24.2729 17.8669 25.1019 16.0261 25.5256C14.0347 25.984 11.9619 25.9545 9.98434 25.4396C8.00678 24.9248 6.18298 23.9399 4.66828 22.5687C3.15359 21.1975 1.99286 19.4808 1.285 17.5646C0.57713 15.6484 0.343099 13.5896 0.60284 11.5635C0.862582 9.53744 1.6084 7.60414 2.77675 5.92827C3.9451 4.2524 5.50137 2.88362 7.31299 1.93848C9.12461 0.993342 11.1379 0.499843 13.1814 0.5ZM13.1814 0.5L13.1814 1L13.1814 0.5ZM6.24705 6.24385C8.08611 4.4057 10.5805 3.37299 13.1814 3.37299C15.7824 3.37299 18.2767 4.4057 20.1158 6.24385C21.9549 8.08199 22.988 10.575 22.988 13.1744C22.988 15.7738 21.9549 18.2669 20.1158 20.105C18.2767 21.9431 15.7824 22.9759 13.1814 22.9759C10.5805 22.9759 8.08611 21.9431 6.24705 20.105C4.40799 18.2669 3.37486 15.7738 3.37486 13.1744C3.37486 10.575 4.40799 8.08199 6.24705 6.24385Z" fill="#5B2100" stroke="#5B2100"/>
</svg>
