<svg width="40" height="40" viewBox="0 0 40 40" fill="none" xmlns="http://www.w3.org/2000/svg">
<path d="M20 11.0156C18.2231 11.0156 16.486 11.5425 15.0085 12.5298C13.5311 13.517 12.3795 14.9201 11.6995 16.5618C11.0195 18.2035 10.8416 20.01 11.1883 21.7528C11.5349 23.4956 12.3906 25.0964 13.6471 26.3529C14.9036 27.6094 16.5044 28.4651 18.2472 28.8117C19.99 29.1584 21.7965 28.9805 23.4382 28.3005C25.0799 27.6205 26.483 26.4689 27.4702 24.9915C28.4575 23.514 28.9844 21.7769 28.9844 20C28.9844 17.6172 28.0378 15.332 26.3529 13.6471C24.668 11.9622 22.3828 11.0156 20 11.0156ZM20 26.6406C18.6866 26.6406 17.4027 26.2512 16.3107 25.5215C15.2186 24.7918 14.3675 23.7547 13.8649 22.5413C13.3622 21.3278 13.2307 19.9926 13.487 18.7045C13.7432 17.4163 14.3757 16.2331 15.3044 15.3044C16.2331 14.3757 17.4163 13.7432 18.7045 13.487C19.9926 13.2307 21.3278 13.3622 22.5413 13.8649C23.7547 14.3675 24.7918 15.2186 25.5215 16.3107C26.2512 17.4027 26.6406 18.6866 26.6406 20C26.6355 21.7596 25.9342 23.4457 24.6899 24.6899C23.4457 25.9342 21.7596 26.6355 20 26.6406ZM28.5938 0.859375H11.4062C8.60905 0.859375 5.92641 1.97056 3.94848 3.94848C1.97056 5.92641 0.859375 8.60905 0.859375 11.4062V28.5938C0.859375 31.391 1.97056 34.0736 3.94848 36.0515C5.92641 38.0294 8.60905 39.1406 11.4062 39.1406H28.5938C31.391 39.1406 34.0736 38.0294 36.0515 36.0515C38.0294 34.0736 39.1406 31.391 39.1406 28.5938V11.4062C39.1406 8.60905 38.0294 5.92641 36.0515 3.94848C34.0736 1.97056 31.391 0.859375 28.5938 0.859375ZM36.7969 28.5938C36.7969 30.7694 35.9326 32.8559 34.3942 34.3942C32.8559 35.9326 30.7694 36.7969 28.5938 36.7969H11.4062C9.23065 36.7969 7.14415 35.9326 5.60576 34.3942C4.06738 32.8559 3.20312 30.7694 3.20312 28.5938V11.4062C3.20312 9.23065 4.06738 7.14415 5.60576 5.60576C7.14415 4.06738 9.23065 3.20312 11.4062 3.20312H28.5938C30.7694 3.20312 32.8559 4.06738 34.3942 5.60576C35.9326 7.14415 36.7969 9.23065 36.7969 11.4062V28.5938ZM32.1094 9.84375C32.1094 10.23 31.9948 10.6077 31.7802 10.9288C31.5656 11.25 31.2606 11.5004 30.9037 11.6482C30.5468 11.796 30.1541 11.8347 29.7752 11.7593C29.3963 11.684 29.0483 11.498 28.7752 11.2248C28.502 10.9517 28.316 10.6037 28.2407 10.2248C28.1653 9.84592 28.204 9.45321 28.3518 9.09632C28.4996 8.73943 28.75 8.4344 29.0711 8.21979C29.3923 8.00517 29.77 7.89062 30.1562 7.89062C30.6743 7.89062 31.171 8.0964 31.5373 8.46268C31.9036 8.82896 32.1094 9.32575 32.1094 9.84375Z" fill="#5B2100"/>
</svg>
