<svg width="633" height="800" viewBox="0 0 633 800" fill="none" xmlns="http://www.w3.org/2000/svg">
<path d="M262.751 308.373C269.447 321.173 273.639 335.266 274.624 349.573C274.947 354.36 274.75 359.146 274.891 363.866C275.2 378.12 278.633 392.04 283.429 405.506C290.871 428.12 300.534 450.2 313.912 470.226C330.328 493.96 348.938 516.613 370.179 536.666C384.583 549.68 399.564 562.573 416.331 572.826C433.38 582.56 450.977 592.053 469.939 598C488.859 603.933 509.509 605.333 528.977 601.066C538.725 598.946 548.178 595.533 557.068 591.08C548.361 595.84 538.979 599.533 529.188 601.88C509.579 606.72 488.578 605.706 469.306 599.92C454.775 595.706 441.173 589.213 427.894 582.346C414.474 575.693 401.927 567.32 390.449 557.986C375.017 545.72 360.276 532.493 347.236 517.88C334.351 503.12 322.169 487.933 311.31 471.76C297.876 451.426 288.226 429.133 281.179 406.16C276.565 392.493 273.259 378.28 273.231 363.866C273.217 359.066 273.526 354.32 273.344 349.6C272.739 335.36 268.913 321.333 262.737 308.333L262.751 308.373Z" fill="#A03A00"/>
<path d="M251.329 177.947C246.42 162.68 238.43 142.733 223.294 134.4C215.319 130.16 207.033 129.16 199.325 133.867C187.874 140.693 187.424 155.213 187.692 166.84C187.903 176.933 189.816 186.64 192.418 196.413C196.089 210.693 199.817 226.48 202.982 240.773C205.05 250.773 207.582 260.667 207.779 270.973C206.316 290.56 212.449 312.907 233.352 320.933C243.199 324.987 254.579 325.147 263.286 318.507C254.79 325.707 243.114 325.907 232.874 322.093C211.014 314.667 203.77 291.027 204.909 270.987C204.6 261.067 201.941 251.16 199.817 241.413C197.566 231.547 195.288 221.693 192.854 211.88C190.8 203.107 187.354 191 185.891 182.2C184.02 168.4 182.346 148.667 191.63 137.013C195.161 132.707 200.548 129.973 205.809 128.853C212.238 127.68 218.779 129.707 224.251 132.733C239.541 141.347 247.278 162.32 251.329 177.933V177.947Z" fill="#A03A00"/>
<path d="M202.138 161.454C201.491 155.494 203.601 148.08 211.464 151.64C216.739 154.16 220.41 158.16 223.969 162.107C230.806 170.147 236.278 179.574 238.261 189.787C232.606 178.294 225.32 167.68 216.134 158.494C208.552 151.294 204.262 149.84 202.138 161.454Z" fill="#A03A00"/>
<path d="M209.467 152.48C208.918 160.054 209.003 167.4 208.75 175C208.313 182.52 206.035 189.627 206.738 197.147C208.159 211.947 211.943 226.534 215.502 241.04C210.663 230.707 207.484 219.707 205.078 208.654C203.362 201.24 202.631 193.347 204.093 185.774C206.851 174.867 206.541 163.374 209.467 152.48Z" fill="#A03A00"/>
<path d="M241.764 196.56C245.899 199.64 247.559 205.333 245.927 210.146C243.663 213.12 242.101 216.6 242.031 220.266C241.918 223.72 243.606 227.026 245.154 230.693C246.673 234.373 247.672 238.386 247.784 242.36C247.911 246.333 247.32 250.28 246.11 254C246.251 250.106 246.181 246.28 245.548 242.56C244.802 236.76 242.017 231.84 239.794 226.426C237.361 220.533 239.415 213.36 243.803 208.906L243.606 209.253C244.465 207.253 244.76 205.04 244.465 202.866C244.155 200.613 243.199 198.453 241.778 196.586L241.764 196.56Z" fill="#A03A00"/>
<path d="M244.338 200.187C240.737 200.107 237.319 200.334 233.816 200.96C230.735 201.467 226.839 201.987 224.63 203.84C223.041 205.014 222.999 206.814 223.125 208.68C223.407 212.934 224.701 217.294 225.91 221.44C227.219 225.68 228.85 229.867 230.567 234.094C227.613 230.507 225.263 226.494 223.421 222.267C221.395 217.014 216.641 205.76 222.591 201.507C224.912 199.854 227.542 199.334 229.976 199.094C234.787 198.654 239.738 198.707 244.338 200.187Z" fill="#A03A00"/>
<path d="M221.958 391.853C220.495 392.48 216.275 394.373 214.109 399.027C213.785 399.733 211.633 404.533 213.996 409.813C217.274 417.147 226.023 418.133 226.488 418.187C230.834 418.6 234.267 417.093 235.955 416.147C237.305 415.4 241.047 413.227 242.622 408.8C244.802 402.72 241.103 397.44 240.47 396.56C239.781 395.6 237.136 392.093 232.072 390.84C227.261 389.653 223.365 391.253 221.958 391.867V391.853Z" fill="#F2B7D3"/>
<path d="M221.958 391.853C209.945 396.653 210.733 412.76 223.379 416.053C234.154 419.413 245.942 409.493 240.948 398.933C238.149 391.827 229.202 388.4 221.958 391.853ZM221.958 391.853C231.65 387.16 243.128 393.747 244.437 403.813C246.096 414.587 232.494 422.92 222.394 418.627C209.185 414.067 209.171 396.787 221.944 391.84L221.958 391.853Z" fill="#A03A00"/>
<path d="M229.062 354.306C231.523 356.466 235.687 356.493 238.107 354.106C240.146 352.079 240.413 348.826 238.754 346.56C236.742 343.813 233.043 344.08 232.817 344.093C232.452 344.12 229.174 344.466 227.669 347.186C226.361 349.56 227.064 352.559 229.062 354.319V354.306Z" fill="#F2B7D3"/>
<path d="M229.062 354.307C234.942 358.893 241.764 351.6 236.728 346.8C231.017 342.573 223.702 348.88 229.062 354.307ZM229.062 354.307C222.211 347.76 231.523 338.786 238.965 344.4C245.843 351.013 236.32 360.187 229.062 354.307Z" fill="#A03A00"/>
<path d="M217.428 366.146C213.982 368.093 212.533 372.56 214.573 375.946C216.458 379.066 220.565 380.08 223.787 379.066C226.262 378.293 228.625 376.2 229.047 373.28C229.554 369.786 226.952 367.4 226.684 367.16C224.293 365.04 220.425 364.44 217.428 366.133V366.146Z" fill="#F2B7D3"/>
<path d="M217.428 366.146C209.664 371.266 216.359 381.08 224.405 377.066C232.283 372.64 225.264 362.08 217.428 366.146ZM217.428 366.146C227.177 361.146 236.025 374.066 226.079 379.84C215.867 384.786 207.962 372.16 217.428 366.146Z" fill="#A03A00"/>
<path d="M280.489 400.266C279.392 417.28 278.506 434.12 279.097 451.146C278.956 466.173 276.495 481.4 269.658 495.04L268.069 497.88C267.703 498.44 267.464 499.173 266.817 499.546C266.395 499.813 265.846 498.733 266.367 498.746C266.015 498.786 266.296 499.213 266.451 499.333C266.648 499.546 266.831 499.333 266.971 499.12C271.895 487.933 274.131 475.786 275.186 463.76C276.087 455.28 275.482 446.88 275.735 438.373C276.157 425.573 277.634 412.773 280.489 400.253V400.266Z" fill="#A03A00"/>
<path d="M262.864 470.427C259.769 479.787 259.755 490.64 265.283 499.12C270.966 507.373 278.773 514.44 285.75 521.76C307.441 543.52 334.505 559.867 364.313 569.773C374.455 573.387 398.621 582.747 408.707 585.627C423.857 589.867 439.541 592.2 455.352 592.987C434.168 593.307 412.829 589.987 392.952 582.96C375.524 576.933 357.997 571.24 341.018 564.12C319.553 554.08 299.817 540.36 283.851 523.427C276.945 515.72 269.447 508.613 263.863 499.907C258.602 490.88 258.996 479.787 262.864 470.427Z" fill="#A03A00"/>
<path d="M274.919 454.92C264.735 456.76 254.227 460.213 246.307 466.653C234.365 476.453 231.889 493.146 236.644 506.92C239.373 516.813 253.495 537.72 258.517 546.946C252.145 538.826 246.195 530.4 240.61 521.76C237.699 517.52 235.265 512.72 233.591 507.84C228.133 493.16 231.158 474.693 244.605 464.733C253.242 458.36 264.172 455.506 274.905 454.906L274.919 454.92Z" fill="#A03A00"/>
<path d="M240.793 519.094C245.576 530.76 237.839 542.774 229.526 551.04C225.292 555.4 220.832 559.494 216.95 564.067C209.312 573.16 202.616 583.32 198.945 594.467C193.234 613.28 202.433 627.894 215.586 641.32C241.074 667.04 275.172 683.547 308.426 698.44C331.129 707.734 355.225 713.934 379.73 717.094C445.097 725.227 540.652 721.374 595.625 684.08C605.471 676.934 612.462 666.587 616.725 655.627C612.772 666.787 605.992 677.347 596.173 684.747C549.866 717.934 473.329 725.24 416.598 723.174C379.167 721.68 341.51 715.854 307.117 701.227C295.639 696.414 284.681 690.787 273.709 685.174C251.892 673.72 230.412 660.734 213.644 642.96C200.169 628.867 190.927 613.454 197.102 593.974C202.897 576.867 215.473 562.76 228.85 550.48C237.248 542.414 245.154 530.774 240.765 519.107L240.793 519.094Z" fill="#A03A00"/>
<path d="M441.736 427.6C466.184 441.16 493.22 448.694 520.354 455.654C527.134 457.4 533.886 459.214 540.709 460.88C547.433 462.534 554.142 464.494 561.077 464.907C567.97 465.214 575.144 464.574 582.107 464.747C589.168 465.04 596.23 465.24 603.249 465.627C592.671 466.134 582.149 466.08 571.613 466.934C564.594 467.587 557.181 467.707 550.232 466.094C539.851 463.974 529.68 461.307 519.412 458.72C492.319 451.667 464.749 443.334 441.708 427.587L441.736 427.6Z" fill="#A03A00"/>
<path d="M465.466 439.614C482.867 439.12 500.366 439.32 517.555 436.507C523.491 435.88 529.582 436.16 535.448 437.48C541.229 438.92 546.814 441 552.032 443.574C557.111 446.214 562.062 448.24 567.886 448.227C573.751 448.507 579.378 447.494 585.3 447.6C591.349 447.84 597.004 450.44 601.322 454.107C598.903 452.56 596.342 451.254 593.642 450.36C588.085 448.414 582.445 449.267 576.705 450.107C570.769 450.747 564.664 451.347 558.827 449.627C555.873 448.774 553.2 447.467 550.598 446.294C540.427 441.454 529.315 438.32 517.865 439.52C500.506 441.974 482.839 441.027 465.452 439.627L465.466 439.614Z" fill="#A03A00"/>
<path d="M458.447 436.587C469.939 453.907 483.26 470.8 500.464 483.294C517.696 495.667 540.033 500.054 561.302 499.667C575.622 499.094 589.829 494.934 602.18 487.574C590.519 496.014 576.143 501.134 561.457 502.16C539.4 503.32 516.233 498.747 498.551 485.707C481.249 472.667 468.35 455.12 458.447 436.587Z" fill="#A03A00"/>
<path d="M523.618 332.854C519.496 335.36 515.74 338.174 512.533 341.454C509.382 344.854 505.95 348.134 504.656 352.054C502.644 358.04 504.586 365.293 509.818 369.32C511.591 370.733 513.757 371.733 516.092 372.44C511.014 372.44 506.006 369.707 503.348 365.52C499.1 359.08 499.944 350.16 505.444 344.654C510.339 339.347 516.458 334.76 523.632 332.854H523.618Z" fill="#A03A00"/>
<path d="M527.247 370.84C537.74 361.733 554.339 370.04 560.514 380.107C557.87 378.4 555.338 376.72 552.721 375.227C545.027 370.8 536.151 367.587 527.247 370.84Z" fill="#A03A00"/>
<path d="M536.151 368.666C534.899 369.226 533.928 370.08 533.647 371.066C533.112 372.866 533.956 374.88 536.193 374.826C542.664 375.04 549.796 372.826 555.957 375.746C550.386 375.92 545.533 377.546 540.075 377.96C537.909 377.96 535.433 378.253 533.323 377C529.469 374.493 531.453 368.16 536.137 368.68L536.151 368.666Z" fill="#A03A00"/>
<path d="M536.615 138.826C540.737 141.32 543.705 145.84 543.198 150.613C542.734 157.706 534.941 165.2 527.233 161.866C502.447 152.946 477.465 143.373 453.538 132.546C446.912 129.506 440.456 126.506 434.013 123.04C428.091 119.76 421.395 115.893 414.995 113.746C405.992 110.506 396.497 110.88 387.354 113.773C373.456 117.653 359.825 122.333 346.406 127.586C361.626 120.493 377.381 114.146 393.782 109.92C406.077 106.84 418.779 111.186 429.357 116.986C445.998 126.2 463.722 133.666 481.305 141.16C496.342 147.52 512.702 154.146 527.922 160.213C534.674 163.266 541.454 156.8 542.312 150.533C543.03 146.08 540.47 141.573 536.615 138.84V138.826Z" fill="#A03A00"/>
<path d="M536.615 138.826C512.505 129.56 488.676 119.6 464.861 109.733C449.191 103.36 432.508 98.0529 415.473 97.1995C410.184 97.0795 405.078 97.5862 400.394 99.9462L397.44 101.266C387.734 105.613 377.437 109.52 367.759 113.786C360.05 117.413 352.961 122.2 346.406 127.573C355.38 118.586 366.774 111.866 378.689 106.92C382.627 105.12 392.446 100.64 396.216 98.8529L399.114 97.4795C403.995 94.8795 410.057 94.1062 415.543 94.1729C433.253 94.8795 450.147 100.253 466.127 106.96C489.844 117.186 513.293 127.8 536.615 138.813V138.826Z" fill="#A03A00"/>
<path d="M521.226 212.467C517.316 209.96 513.644 207.067 510.311 203.827C506.639 200.24 503.348 196.04 499.69 192.88C485.131 178.853 463.075 173.307 442.763 175.773C429.976 177.28 418.019 182.36 407.624 189.667C420.186 178.08 437.938 171.587 455.549 172.2C468.8 172.667 482.121 176.347 492.938 183.787C496.272 186.2 499.128 188.933 502.011 191.773C505.43 195.133 508.229 199.267 511.394 202.907C514.376 206.32 517.696 209.493 521.226 212.467Z" fill="#A03A00"/>
<path d="M524.138 194.134C510.957 181.96 494.95 172.427 477.352 167.254C451.455 159.707 423.181 163.76 399.789 176.56C439.513 148.68 493.712 158.494 524.138 194.134Z" fill="#A03A00"/>
<path d="M407.624 189.68C422.717 202.253 440.835 210.253 460.852 211.866C472.964 213.133 485.441 215.96 497.327 212.2C504.557 210.026 512.702 210.346 519.777 212.733C512.435 211.4 504.951 211.613 498.002 214.2C486.003 218.853 472.823 216.306 460.402 215.04C439.963 213.253 421.044 204.386 407.61 189.68H407.624Z" fill="#A03A00"/>
<path d="M475.116 177.04C486.468 188.373 482.473 208.32 467.154 214.227C469.911 211.773 472.275 209.12 474.131 206.24C479.969 197.373 479.435 186.453 475.116 177.04Z" fill="#A03A00"/>
<path d="M436.249 175.733C429.272 184.227 427.472 194.493 430.215 204.853C422.478 196.12 425.362 180.907 436.249 175.733Z" fill="#A03A00"/>
<path d="M448.052 191.427C447.039 194.12 447.728 197.227 449.501 199.373C453.116 204.12 460.036 202.253 462.611 197.84C463.834 195.8 464.186 193.28 463.525 190.88L463.638 191.133C460.585 184.747 450.724 184.667 448.038 191.427H448.052ZM448.052 191.427C449.923 186.387 456.534 183.773 461.682 186.133C463.511 186.933 465.255 188.28 466.268 190.013C469.166 196.267 464.285 204.067 456.928 204.28C450.091 204.653 445.857 196.973 448.052 191.427Z" fill="#A03A00"/>
<path d="M165.536 74.9196C152.75 93.3996 144.872 114.2 139.963 135.72C134.688 156.706 129.202 178.826 124.56 199.986C120.101 221.093 115.136 243.4 111.619 264.693C105.05 302.653 105.584 341.24 104.389 379.6C103.953 390.133 103.221 402.106 101.941 412.586C100.858 422.866 98.8745 433.106 96.7363 443.226C84.8781 494.173 59.2346 537.12 15.2622 569.2C58.0249 535.933 82.7682 493.626 93.9511 442.653C96.033 432.6 97.9461 422.466 98.9729 412.266C100.211 401.826 100.872 389.96 101.252 379.48C102.124 341 101.772 302.32 108.595 264.226C112.238 242.893 117.189 220.546 122.028 199.453C126.98 178.333 132.747 156.266 138.374 135.32C143.789 113.946 152.131 92.9996 165.536 74.9062V74.9196Z" fill="#A03A00"/>
<path d="M126.136 342.88C118.16 391.067 108.819 441.387 99.648 489.32C94.8513 513.667 90.6313 538.347 81.8396 561.787C73.1324 585.24 61.021 607.32 48.6001 629.133C59.7128 606.787 71.3037 584.507 79.378 561C87.5226 537.573 91.616 513.093 96.3283 488.747C105.612 440.84 115.642 390.6 126.136 342.88Z" fill="#A03A00"/>
<path d="M183.19 78.5996C162.442 195.426 152.427 313.746 146.462 431.986C145.632 528.2 116.585 617.6 27.0645 671.693C50.0916 657.026 70.657 638.866 87.2979 617.84C129.639 564.666 142.763 497.2 143.241 431.88C148.98 313.56 159.601 195.026 183.19 78.5996Z" fill="#A03A00"/>
<path d="M146.729 627.094C161.176 632.92 174.821 640.974 185.694 651.88C190.786 657.427 195.555 663.174 201.449 667.987C207.202 672.814 213.574 677 220.425 680.587C212.998 678.227 206.02 674.507 199.775 669.907C193.445 665.44 188.409 659.6 183.232 654.054C172.697 643.307 159.727 635.08 146.744 627.094H146.729Z" fill="#A03A00"/>
<path d="M220.425 680.6C303.362 723.973 398.734 736.493 491.574 720.573C510.648 717.253 529.554 713.013 548.136 707.706C524.827 715.56 500.675 721.32 476.283 725.173C389.028 739.173 296.216 724.586 220.425 680.613V680.6Z" fill="#A03A00"/>
<path d="M196.54 601.894C184.062 606.36 172.162 612.134 161.739 620.027L161.457 620.24L161.204 620.294C157.279 621.2 153.538 622.747 150.134 624.827C148.966 625.52 147.841 626.28 146.729 627.094C148.361 624.907 150.415 622.987 152.736 621.427C155.057 619.827 157.659 618.587 160.402 617.694L159.868 617.974C169.897 609.2 182.867 603.067 196.54 601.907V601.894Z" fill="#A03A00"/>
<path d="M146.73 627.094C133.127 639.32 117.893 649.934 101.491 658.534C74.5254 672.907 46.9125 687.347 19.1309 700.214C45.5199 684.56 72.5983 669.947 99.9579 655.88C116.444 647.68 131.931 637.774 146.73 627.094Z" fill="#A03A00"/>
<path d="M237.614 298.787C238.318 314.014 236.714 329.307 232.804 344.094C232.072 328.867 233.718 313.574 237.614 298.787Z" fill="#A03A00"/>
<path d="M231.861 355.2C229.934 366.253 228.71 377.4 228.232 388.6C228.19 389.626 229.878 389.626 229.92 388.6C230.384 377.546 231.58 366.533 233.479 355.626C233.661 354.626 232.03 354.186 231.847 355.2H231.861Z" fill="#A03A00"/>
<path d="M244.943 321.747C245.759 346.747 244.282 371.814 240.47 396.56C239.626 371.56 241.145 346.507 244.943 321.747Z" fill="#A03A00"/>
<path d="M239.78 413.28C241.468 423.614 240.849 434.267 237.895 444.347C236.179 434.014 236.84 423.374 239.78 413.28Z" fill="#A03A00"/>
<path d="M354.072 33.1335L348.108 39.0401L342.214 45.0001C338.36 49.0401 334.491 53.0668 330.764 57.2001C323.294 65.4401 316.078 73.9068 309.579 82.8134C303.066 91.7201 297.102 100.933 293.557 111.16C291.616 116.267 289.801 121.413 288.085 126.587C287.241 129.173 286.425 131.773 285.694 134.373C285.328 135.68 284.977 136.987 284.667 138.293L284.217 140.253L284.02 141.227L283.922 141.707L283.879 141.947V142.067C283.879 142.067 283.865 142.027 283.851 142.013V142.173C283.204 146.48 282.079 150.64 280.63 154.72C279.139 158.827 276.959 162.68 274.328 166.173C272.992 167.92 271.613 169.573 270.066 171.173C268.519 172.747 266.662 174.227 264.439 174.96C262.245 175.707 259.868 175.827 257.645 175.387C255.408 174.96 253.341 174.04 251.484 172.867C255.338 174.907 260.107 175.76 264.088 174.093C266.057 173.307 267.646 171.88 269.011 170.293C270.375 168.693 271.641 166.933 272.851 165.213C275.228 161.72 277.099 157.947 278.365 154.013C279.645 150.04 280.588 145.947 281.038 141.853V142.013C281.038 141.907 281.038 141.787 281.052 141.707V141.573L281.108 141.307L281.193 140.787L281.376 139.747L281.798 137.707C282.093 136.347 282.431 135.013 282.768 133.68C283.457 131.013 284.231 128.36 285.033 125.72C286.651 120.453 288.507 115.267 290.406 110.107L291.869 106.24C292.432 104.947 292.91 103.613 293.557 102.36C294.781 99.8268 296.131 97.3735 297.552 94.9601C300.408 90.1468 303.601 85.5468 307.005 81.0934C313.757 72.1734 321.283 63.8268 329.16 55.8401C333.099 51.8401 337.164 47.9734 341.328 44.1868L347.615 38.5735C349.74 36.7201 351.92 34.9335 354.058 33.1201L354.072 33.1335Z" fill="#A03A00"/>
<path d="M295.386 68.1734C292.559 61.7067 286.186 62.3867 280.349 64.4934C274.553 66.4134 268.814 68.5334 262.779 69.9067C254.579 71.6 246.448 72.9067 238.008 72.4C225.348 71.5734 213.757 63.8 207.554 53.6934C223.674 71.3067 239.569 71.3734 262.062 66.9734C266.001 66.2134 269.869 65.1334 273.794 64.08C281.08 62.0267 292.798 58.16 295.386 68.1867V68.1734Z" fill="#A03A00"/>
<path d="M278.365 107.173C267.492 112.2 254.551 114.067 242.594 111.72C227.74 107.44 213.518 101.64 199.494 95.3467C214.432 98.9467 228.78 104.28 243.424 108.693C254.959 111.08 266.915 109.987 278.365 107.173Z" fill="#A03A00"/>
<path d="M273.625 126.347C265.691 131.947 254.255 135.267 244.619 131.107C238.303 128.427 233.985 123.6 228.147 120.4C219.862 115.347 210.775 111.974 201.378 108.974C214.629 110.4 227.711 115.214 238.106 123.294C248.853 132.8 260.852 131.867 273.625 126.36V126.347Z" fill="#A03A00"/>
<path d="M208.341 127.386C203.038 123.546 201.997 116.133 200.127 110.466C197.13 100.36 197.032 89.1198 201.547 79.4131C200.647 87.6264 200.492 95.6798 201.997 103.773C202.602 107.773 203.812 111.693 204.459 115.893C205.148 119.92 205.838 123.906 208.341 127.4V127.386Z" fill="#A03A00"/>
<path d="M411.154 186.414C407.145 185.587 403.474 183.414 401.097 180.214C399.015 177.414 397.932 173.987 398.03 170.574C398.058 169.547 396.37 169.547 396.342 170.574C396.131 178.8 402.208 186.214 410.718 187.96C411.773 188.174 412.223 186.64 411.168 186.414H411.154Z" fill="#A03A00"/>
<path d="M419.778 181.093C416.149 180.067 412.618 178.4 409.79 175.987C409.003 175.32 408.243 174.587 407.708 173.707C406.724 172.107 406.316 170.28 406.344 168.44C406.358 167.413 404.67 167.413 404.656 168.44C404.6 171.747 405.894 174.747 408.454 176.987C411.521 179.667 415.361 181.507 419.328 182.64C420.369 182.933 420.819 181.387 419.778 181.093Z" fill="#A03A00"/>
<path d="M430.215 176.773C427.936 175.787 425.883 174.28 424.307 172.453C421.395 169.093 420.594 164.6 421.86 160.44C422.169 159.453 420.537 159.027 420.228 160.013C418.849 164.507 419.679 169.36 422.704 173.08C424.434 175.227 426.783 177.013 429.371 178.147C430.356 178.573 431.214 177.2 430.229 176.76L430.215 176.773Z" fill="#A03A00"/>
<path d="M446.687 173.413C441.159 167.533 438.894 159.747 439.78 151.987C439.893 150.96 438.205 150.973 438.092 151.987C437.164 160.173 439.682 168.36 445.491 174.547C446.209 175.32 447.404 174.187 446.687 173.413Z" fill="#A03A00"/>
<path d="M458.278 171.493C455.521 166.613 454.311 161.106 454.733 155.586C454.817 154.56 453.129 154.56 453.045 155.586C452.595 161.373 453.931 167.186 456.829 172.293C457.335 173.2 458.798 172.4 458.292 171.48L458.278 171.493Z" fill="#A03A00"/>
<path d="M470.952 175.906C472.091 170.84 473.231 165.773 474.384 160.706C474.609 159.706 472.992 159.28 472.752 160.28C471.613 165.346 470.474 170.413 469.32 175.48C469.095 176.48 470.713 176.906 470.952 175.906Z" fill="#A03A00"/>
<path d="M486.65 179.987C491.672 178.36 495.569 174.36 496.82 169.454C497.074 168.454 495.456 168.027 495.189 169.027C494.077 173.374 490.673 176.987 486.2 178.44C485.173 178.774 485.623 180.32 486.65 179.987Z" fill="#A03A00"/>
<path d="M478.759 178.214C482.937 174.987 485.75 170.307 486.524 165.24C486.594 164.814 486.411 164.387 485.933 164.254C485.539 164.147 484.962 164.387 484.892 164.814C484.16 169.64 481.558 174 477.563 177.08C476.719 177.734 477.915 178.854 478.759 178.214Z" fill="#A03A00"/>
</svg>
