<svg width="27" height="44" viewBox="0 0 27 44" fill="none" xmlns="http://www.w3.org/2000/svg">
<path d="M25.4792 0.325026C23.3776 0.102086 21.2655 -0.0064071 19.1521 2.59382e-05C12.1459 2.59382e-05 7.79171 4.46253 7.79171 11.6459V16.5229H1.90629C1.63002 16.5229 1.36507 16.6327 1.16972 16.828C0.97437 17.0234 0.864624 17.2883 0.864624 17.5646V25.5854C0.864624 25.8617 0.97437 26.1267 1.16972 26.322C1.36507 26.5174 1.63002 26.6271 1.90629 26.6271H7.79171V42.7104C7.79171 42.9867 7.90145 43.2517 8.0968 43.447C8.29215 43.6424 8.55711 43.7521 8.83337 43.7521H17.1209C17.3971 43.7521 17.6621 43.6424 17.8574 43.447C18.0528 43.2517 18.1625 42.9867 18.1625 42.7104V26.6271H24.0292C24.2821 26.6272 24.5264 26.5353 24.7166 26.3686C24.9067 26.2018 25.0297 25.9716 25.0625 25.7209L26.098 17.7C26.1172 17.553 26.1049 17.4036 26.0618 17.2617C26.0187 17.1198 25.9458 16.9888 25.8479 16.8774C25.7501 16.766 25.6296 16.6767 25.4946 16.6156C25.3595 16.5545 25.2129 16.5229 25.0646 16.5229H18.1625V12.4417C18.1625 10.4209 18.5688 9.57711 21.0959 9.57711H25.3438C25.6201 9.57711 25.885 9.46736 26.0804 9.27201C26.2757 9.07666 26.3855 8.81171 26.3855 8.53544V1.35836C26.3856 1.10546 26.2937 0.861153 26.1269 0.671017C25.9602 0.480881 25.73 0.357903 25.4792 0.325026ZM24.3021 7.49169L21.0938 7.49378C16.6 7.49378 16.0792 10.3188 16.0792 12.4417V17.5667C16.0792 17.8426 16.1887 18.1072 16.3836 18.3025C16.5785 18.4978 16.8429 18.6078 17.1188 18.6084H23.8813L23.1125 24.5459H17.1209C16.8446 24.5459 16.5797 24.6556 16.3843 24.851C16.189 25.0463 16.0792 25.3113 16.0792 25.5875V41.6667H9.87504V25.5875C9.87504 25.3113 9.7653 25.0463 9.56994 24.851C9.37459 24.6556 9.10964 24.5459 8.83337 24.5459H2.95004V18.6084H8.83337C9.10964 18.6084 9.37459 18.4986 9.56994 18.3033C9.7653 18.1079 9.87504 17.843 9.87504 17.5667V11.6459C9.87504 5.65836 13.3438 2.08336 19.1521 2.08336C21.2542 2.08336 23.1521 2.19794 24.3021 2.29794V7.49169Z" fill="#5B2100"/>
</svg>
