<?xml version="1.0" encoding="UTF-8"?>
<svg id="Layer_3" data-name="Layer 3" xmlns="http://www.w3.org/2000/svg" viewBox="0 0 450 600">
  <defs>
    <style>
      .cls-1 {
        fill: #f2b7d3;
      }

      .cls-2 {
        fill: #a03a00;
      }
    </style>
  </defs>
  <path class="cls-2" d="M244.76,302.56c-1.35,10.89,6.65,20.41,17.32,21.52,5.06,.5,10.17-1.02,14.85-2.91,9.38-4.22,16.99-12.02,23.57-19.85,3.33-4.03,6.42-8.35,9.91-12.38,6.89-8.11,14.85-15.28,23.54-21.3-8.04,6.86-15.51,14.33-22.02,22.56-6.46,8.32-12.43,17.38-20.58,24.27-4.95,4.42-10.78,8.46-17.36,10.22-3.91,1.13-8.03,1.96-12.15,1.33-11.32-1.54-19.63-12.21-17.08-23.47h0Z"/>
  <path class="cls-2" d="M268.28,284.48c-.05-4.65,3.09-9.75,7.76-11.19,4.23-1.36,7.35-4.14,9.82-7.82,1.61-2.43,2.87-5.12,3.78-8.06,.14,3.08-.66,6.22-2.07,9.04-2.06,4.29-6.1,7.9-10.73,9.08-4.38,1.17-6.94,4.71-8.56,8.94h0Z"/>
  <path class="cls-2" d="M268.28,284.48c9.35-.14,19.2-1.46,26.9-6.97,3.88-2.57,7.24-5.65,8.01-10.37,.84-4.58-.52-9.36-2.56-13.55,1.53,1.88,2.73,4.05,3.56,6.38,4.1,11.66-4.25,18.99-14.16,23.11-6.91,2.5-14.62,2.88-21.75,1.39h0Z"/>
  <path class="cls-2" d="M319.15,262.99c-1.51,7.79-6.21,14.68-12.05,19.93-5.74,5.28-11.35,10.55-17.62,15.21,4.75-6.02,10.3-11.77,15.88-17.05,5.85-5.16,10.35-11.09,13.79-18.1h0Z"/>
  <path class="cls-2" d="M295.14,113.2c20.71,19.84,32.62,48.82,31.41,77.59-.42,6.36-1.34,13.38-1.79,19.73-.75,8.75-.67,17.48,.08,26.2,.3,4.35,1.06,8.47,2.83,12.47,2.6,5.92,6.1,11.85,7.91,18.27,1.24,4.34,1.46,9.02,1.21,13.44-.21,4.35,.75,8.42,2.11,12.54,3.74,12.71,10.63,24.24,14.28,36.98,2.12,9.66,2.32,18.61,3.05,27.95,1.09,5.8,4.08,11.01,7.21,16.03,3.37,5.36,7.69,10.87,11.61,15.89,19.54,23.49,5.45,45.02,12.93,70.21,5.15,16.97,19.11,29.81,34.71,37.43-16.01-7.2-30.32-20.02-35.9-37.06-5.88-16.86,.32-35.39-4.31-52.31-2.19-8.6-7.77-15.29-13.22-22.13-2.7-3.5-5.31-7.08-7.72-10.82-3.53-5.63-7.16-11.81-7.83-18.6-.33-6.61-.77-13.09-1.77-19.62-.55-4.29-1.48-8.47-3.16-12.48-3.22-8.2-7.12-16.1-10.1-24.43-2.17-6.32-4.68-12.84-4.29-19.65,.53-6.55-.58-12.85-3.25-18.82-2.45-6.01-6.3-11.84-7.63-18.44-1.19-6.61-1.33-13.27-1.44-19.95,.06-10.97,1.81-22.04,2.77-32.93,1.5-28.48-9.76-57.18-29.73-77.49h0Z"/>
  <path class="cls-2" d="M288.98,87.39c2.46,6.76,5.88,13.16,10.16,18.9,4.21,5.88,9.98,10.38,14.21,16.24,12.79,17.5,21.29,38.53,22.76,60.26,.41,7.25-.07,14.51-.67,21.71-4.89,49.97,15.77,36.12,13.64,72.55-.2,7.02,2.73,13.7,8.42,17.86,1.38,1.08,2.88,2.09,4.32,3.28,4.31,3.58,7.39,8.58,9.05,13.88,3.29,10.45,2.46,21.65,3.75,32.28,2.6,21.57,15.76,40.2,30.9,55.13-49.14-45.9-23.8-71.38-41.5-95.9-2.17-2.85-5.01-4.75-7.9-6.9-4.55-3.35-7.88-8.45-8.91-14.04-1.01-5.38-.12-10.99-.61-16.28-.25-3.49-1.09-6.86-2.46-10.04-2.98-6.42-7.78-12.35-9.64-19.42-5.11-17.74,.47-36.02-.58-53.99,0,0-.44-5.32-.44-5.32l-.75-5.29c-2.95-17.59-10.06-34.51-20.39-49.05-4.07-5.95-9.73-10.6-13.76-16.58-4.19-5.9-7.42-12.44-9.62-19.29h0Z"/>
  <path class="cls-2" d="M378.49,85.31c3.31,6.33,5.91,13.12,7.02,20.24,.58,3.55,.78,7.17,.57,10.78-.21,3.61-.86,7.18-1.75,10.67-.88,3.49-1.99,6.9-2.97,10.33-.98,3.42-1.86,6.86-2.12,10.34-.26,3.47,.23,6.95,1.64,10.07,.36,.77,.69,1.59,1.14,2.27,.42,.65,1.04,1.38,1.56,2.13,.54,.74,1.01,1.52,1.49,2.3,.47,.78,1,1.53,1.39,2.35,1.8,3.18,3.13,6.61,4.14,10.12,.99,3.51,1.57,7.12,2,10.69,.84,7.16,1.08,14.3,2.98,21.05,.97,3.35,2.18,6.63,4.03,9.52,1.82,2.91,4.32,5.27,7.06,7.52,2.74,2.23,5.64,4.67,7.81,7.75,2.18,3.05,3.72,6.49,4.76,10.01,1.01,3.53,1.72,7.17,1.81,10.88,.1,3.71-.49,7.4-1.24,10.91-.75,3.52-1.53,6.95-1.78,10.41-.24,3.46-.1,6.95,.62,10.37,.12,.86,.36,1.71,.57,2.56,.22,.84,.39,1.71,.66,2.54,.51,1.66,1.09,3.3,1.82,4.88,1.4,3.19,3.32,6.15,5.13,9.28,.92,1.56,1.76,3.2,2.5,4.88,.72,1.7,1.32,3.46,1.73,5.27,.23,.9,.34,1.81,.51,2.72l.29,2.74c.13,1.77,.29,3.54,.49,5.31,.38,3.54,.89,7.06,1.41,10.6,.25,1.77,.53,3.55,.68,5.38,.13,1.88,.11,3.59,.21,5.39,.29,7.12,.91,14.24,1.7,21.33,1.52,14.2,3.9,28.31,6.47,42.39-3.13-13.96-5.76-28.04-7.7-42.24-.93-7.1-1.65-14.24-2.06-21.4-.13-1.77-.14-3.64-.29-5.32-.17-1.73-.47-3.49-.75-5.25-.58-3.52-1.15-7.07-1.6-10.64-.22-1.78-.41-3.57-.58-5.37l-.32-2.59c-.18-.85-.3-1.71-.52-2.54-.41-1.68-.96-3.31-1.65-4.9-.71-1.58-1.51-3.12-2.41-4.64-1.78-3.04-3.79-6.1-5.28-9.46-.78-1.66-1.4-3.4-1.95-5.15-.29-.87-.47-1.77-.71-2.65-.22-.89-.48-1.76-.61-2.67-.77-3.58-.95-7.31-.71-10.97,.25-3.68,1.05-7.25,1.76-10.73,.72-3.47,1.25-6.91,1.14-10.36-.09-3.45-.79-6.87-1.75-10.21-.97-3.34-2.39-6.51-4.35-9.3-1.95-2.81-4.57-5.05-7.35-7.34-2.76-2.29-5.53-4.92-7.5-8.11-2-3.17-3.26-6.67-4.26-10.18-1.94-7.09-2.14-14.37-2.93-21.4-.76-7.03-2.32-13.96-5.67-20.14-.37-.8-.87-1.52-1.3-2.28-.45-.75-.89-1.52-1.39-2.23-.48-.73-1.03-1.37-1.57-2.22-.53-.83-.86-1.68-1.24-2.53-1.48-3.43-1.94-7.25-1.6-10.9,.33-3.67,1.3-7.18,2.34-10.61,1.05-3.43,2.19-6.82,3.14-10.24,.97-3.42,1.69-6.9,2-10.42,.3-3.53,.2-7.09-.28-10.61-.46-3.52-1.29-7-2.39-10.4-1.08-3.4-2.43-6.71-3.98-9.94Z"/>
  <path class="cls-2" d="M335.56,31.17c16.44,17.68,29.14,41.67,26.7,66.47-1.09,6.95-2.5,13.68-3.1,20.67-1.58,17.28-2.65,34.73-1,52.03,2.05,20.68,8,40.97,17.17,59.61,3.05,6.22,6.74,12.04,10.94,17.59,2.07,2.79,4.21,5.67,5.83,8.89,3.17,6.43,4.68,13.54,4.76,20.67,.04,7.07-1.86,13.9-2.54,20.86-1.61,17.34,2.56,34.81,9.92,50.54-7.96-15.44-12.67-33.16-11.34-50.68,.56-6.93,2.34-13.77,2.19-20.71-.17-10.41-3.95-20.25-10.58-28.27-8.65-11.1-14.75-24.05-19.52-37.24-7.31-19.8-10.46-41.02-9.94-62.09,.43-14.02,1.12-28.02,3.55-41.86,.6-3.46,1.4-6.87,1.92-10.26,2.72-24.43-9.39-48.11-24.95-66.23h0Z"/>
  <path class="cls-2" d="M34.67,381.74c20.43,1.48,40.94,1.36,61.32-.66,15.25-1.4,30.42-3.58,45.08-8.02,14.66-4.39,28.21-11.63,41.45-19.24,10.91-6.53,21.62-13.6,30.38-22.85,0,0,5.33-5.54,5.33-5.54,10.63-11.12,21.74-21.76,32.82-32.42-10.53,11.21-21.26,22.19-31.66,33.52-3.22,3.38-7.23,8.09-10.61,11.21-15.43,13.8-33.72,23.75-52.41,32.45-19.04,8.1-39.72,11.44-60.22,12.83-20.46,1.59-41.11,1.27-61.47-1.27h0Z"/>
  <path class="cls-2" d="M245.2,312.6c-15.41,11.33-29.63,24.24-41.93,38.87-12.15,14.69-22.61,30.78-31.84,47.44-3.06,5.58-6.09,11.21-9.1,16.82-2.9,5.56-6.06,11.17-7.92,17.12-3.3,11.83-4.93,25.14-.53,36.86,2.24,5.78,6.01,10.88,10.26,15.53,4.26,4.68,8.96,9.02,13.56,13.37,18.79,17.26,36.73,35.63,52.29,55.9-16.38-19.6-34.52-37.55-53.6-54.47-4.73-4.29-9.48-8.58-13.86-13.32-9.67-10.07-14.42-21.37-13.66-35.44,.27-6.5,1.32-12.89,3.12-19.16,2-6.23,5.19-11.81,8.21-17.53,21.42-41.21,45.62-75.98,84.99-101.99h0Z"/>
  <path class="cls-2" d="M141.13,403.61c-14.16,9.66-28.57,18.95-43.22,27.83-8.59,5.25-20.88,12.39-29.09,17.94-14.18,9.53-27,20.86-38.99,33.06,14.42-17.82,32.33-32.76,52.12-44.31,19.68-11.64,39.26-23.3,59.18-34.52h0Z"/>
  <path class="cls-2" d="M137.93,82.51c12.18-1.83,24.27-3.85,36.58-4.83,6.12-.32,12.19-.93,18.31-1.53,9.17-.96,19.86-2.04,27.28,4.7,0,0,3.51,3.01,3.51,3.01,15.28,13.1,25.78,31.33,31.83,50.32-8.1-19.78-20-38.19-36.91-51.42-7.04-6.22-16.81-4.95-25.5-4.23-6.11,.47-12.27,1.03-18.42,1.12-12.2,.59-24.45,2.09-36.67,2.87h0Z"/>
  <path class="cls-2" d="M137.93,82.51c6.78,6.96,13.8,9.44,23.38,9.25,14.59,.07,29.08-1.26,43.56-3.23,6.07-.98,12.45,1.31,17.32,4.84,14.06,10.73,25.01,25.32,33.24,40.8-6.33-9.85-13.46-19.14-21.6-27.43-6.13-5.9-12.27-12.51-20.5-15.09-2.73-.83-5.31-1.04-8.17-.6-5.77,.73-11.64,1.45-17.49,1.88-8.79,.62-17.61,.95-26.43,.5-9.79-.26-17.05-3.18-23.32-10.9h0Z"/>
  <path class="cls-2" d="M136.14,129.93c7.27-3.63,14.9-7.19,22.97-8.58,4.14-.58,8.39,.17,12.41,.99,4.02,.78,8.15,1.75,11.92,3.45,9.84,4.14,16.97,12.06,21.86,21.33,.98,1.79,1.8,3.7,2.95,5.16,2.64,3.38,7.51,1.05,10.39-1.01-2.82,2.76-8.04,5.43-11.32,1.83-1.48-1.64-2.37-3.47-3.46-5.16-5.14-8.48-12.13-16.02-21.45-19.85-3.64-1.69-7.46-2.57-11.39-3.42-3.89-.91-7.73-1.69-11.72-1.37-7.94,1.01-15.6,4-23.16,6.62h0Z"/>
  <path class="cls-2" d="M204.01,145.71c6.5,.62,12.91-1.64,17.68-6.07,.6-.55-.3-1.45-.89-.89-4.54,4.21-10.62,6.29-16.79,5.7-.81-.08-.8,1.19,0,1.26h0Z"/>
  <path class="cls-2" d="M198.02,138.75c5.6,.62,11.25-1.62,14.89-5.92,.52-.62-.37-1.52-.89-.89-3.45,4.08-8.69,6.14-13.99,5.55-.81-.09-.8,1.17,0,1.26h0Z"/>
  <path class="cls-2" d="M190.3,131.68c4.96-.41,9.45-3.21,11.95-7.51,.41-.7-.68-1.34-1.09-.64-2.27,3.9-6.35,6.52-10.86,6.89-.81,.07-.81,1.33,0,1.26h0Z"/>
  <path class="cls-2" d="M178.25,125.94c1.12-2.97,2.52-5.83,4.15-8.56,.42-.7-.67-1.34-1.09-.64-1.69,2.82-3.11,5.78-4.28,8.86-.29,.76,.93,1.09,1.22,.34h0Z"/>
  <path class="cls-2" d="M179.4,125.56c-16.65,5.24-15.24,27.93,2.81,28.87,9.6,.6,15.14-8.76,14.82-17.51,2.72,14.95-10.72,24.94-24.13,17.34-12.54-8.03-8.09-26.64,6.51-28.69h0Z"/>
  <path class="cls-2" d="M136.14,129.93c13.65,16.5,32.45,24.48,53.56,25.43,6.8,.33,13.65-.14,20.49-1.12-6.61,2.02-13.55,3.06-20.53,3.1-21.21,.24-42.26-8.91-53.52-27.41h0Z"/>
  <path class="cls-2" d="M70.15,74.21c1.3,3.64,2.02,7.5,2.07,11.44,0,3.94-.78,7.84-1.92,11.58-2.34,7.5-6.17,14.38-10.38,20.89-8.53,12.98-19.36,24.46-31.88,33.49,5.59-5.32,10.97-10.79,15.97-16.59,2.48-2.92,4.92-5.86,7.2-8.93,2.3-3.05,4.54-6.15,6.6-9.36,4.18-6.37,8-13.02,10.63-20.13,1.26-3.56,2.26-7.23,2.55-11,.29-3.76-.08-7.62-.84-11.39Z"/>
  <path class="cls-2" d="M75.96,179.86c4.13,5.98,6.34,13.34,6.92,20.57,1.8,12.41-4.59,19.66-17.11,19.6-2.45-.04-4.88-.33-7.22-.97,4.8,.16,9.65-.23,13.91-1.9,7.55-2.98,8.74-9.21,8.04-16.53-.28-7.19-1.8-14.04-4.54-20.76h0Z"/>
  <path class="cls-2" d="M34.39,194.63c4.01-.09,8.03,.34,11.98,1.16,5.05,.82,10.89,3.1,12.7,8.46,.95,1.97,1.14,4.87-1.81,5.2-1.93,.16-3.9-.7-4.86-2.4-1.02-2.11-.7-3.81-1.87-5.69-.89-1.67-2.26-3.12-3.74-4.46,2.72,1.31,5.28,3.6,6.31,6.58,.36,1,.56,1.96,.99,2.54,.54,.85,2.38,1.51,3.22,.99-.45-3.22-2.95-6.04-5.98-7.4-5.34-2.26-11.22-3.54-16.93-5h0Z"/>
  <path class="cls-2" d="M19.61,243.53c5.49,2.15,10.74,4.9,15.72,8.11,2.5,1.58,4.89,3.34,7.24,5.16,2.33,1.83,4.55,3.81,6.73,5.8,4.27,4.06,8.5,7.98,13.04,11.66,4.52,3.69,9.19,7.2,13.97,10.65-5.32-2.54-10.37-5.64-15.17-9.08-2.42-1.7-4.73-3.56-7-5.46-2.25-1.92-4.41-3.95-6.56-5.92-4.24-4.01-8.68-7.73-13.36-11.19-4.68-3.46-9.58-6.65-14.6-9.73Z"/>
  <path class="cls-2" d="M30.33,264.9c8.05,1.6,15.67,4.94,22.79,8.94,7.07,4.01,14.41,7.11,22.03,9.99-8.17-.91-16.07-3.81-23.25-7.77-7.08-4.09-14.2-7.63-21.58-11.15h0Z"/>
  <path class="cls-2" d="M30.15,292.98c7.55,.03,15.05-.28,22.4-1.76,7.39-1.43,14.32-4.15,21.11-7.48-11.64,10.21-28.74,13.21-43.52,9.23h0Z"/>
  <path class="cls-2" d="M264.8,306.86c-5.6-.07-4.99,7.38-5.22,11.37-.14,4.88-.42,9.76-.73,14.63-.73,9.76-1.6,19.49-3.29,29.15-.34-9.79,.14-19.54,.77-29.3,.36-4.87,.76-9.73,1.29-14.59,.41-4.09,1.19-12.56,7.18-11.26h0Z"/>
  <g>
    <path class="cls-1" d="M245.76,364.31c-8.05,4.86-8.37,14.38-8.38,14.81-.03,1.7,.16,5.81,2.89,9.83,3.87,5.69,9.98,6.95,11.62,7.26,1.68,.32,10.87,1.83,17.11-5.11,4.52-5.02,5.38-12.12,3.2-17.68-1.69-4.31-4.8-6.64-5.94-7.48-4.78-3.49-13.21-6.03-20.49-1.63Z"/>
    <path class="cls-2" d="M245.76,364.31c-10.22,6.27-11,22.32-.28,28.49,7.39,4.28,18.35,3.49,23.6-3.74,3.93-5.23,4.49-12.88,.87-18.49-4.89-7.56-16.21-11.13-24.19-6.25h0Zm0,0c8.14-4.91,19.54-1.93,25.24,5.53,2.9,3.88,3.94,9.07,2.97,13.88-2.62,13.5-18.71,17.81-29.42,10.53-10.71-7.16-9.37-23.41,1.21-29.94h0Z"/>
  </g>
  <path class="cls-2" d="M288.25,283.44c.81,0,.81-1.26,0-1.26s-.81,1.26,0,1.26h0Z"/>
  <path class="cls-2" d="M183.95,127.35c3.67-.81,6.59-3.82,7.23-7.53,.06-.34-.09-.68-.44-.78-.3-.08-.72,.1-.78,.44-.31,1.82-1.19,3.49-2.56,4.73-1.07,.96-2.38,1.61-3.78,1.92-.79,.17-.46,1.39,.34,1.22h0Z"/>
  <path class="cls-2" d="M168.94,122.38c-.29-2.01,.04-4.12,.9-5.95,.15-.31,.09-.68-.23-.86-.27-.16-.72-.08-.86,.23-1.02,2.17-1.37,4.55-1.03,6.92,.05,.34,.48,.52,.78,.44,.36-.1,.49-.44,.44-.78h0Z"/>
  <path class="cls-2" d="M159.32,121.27c-.08-.12-.15-.25-.22-.38-.11-.22-.15-.3-.22-.49-.19-.53-.3-1.08-.3-1.64,0-.96,.3-1.81,.81-2.57,.19-.28,.05-.7-.23-.86-.31-.18-.67-.06-.86,.23-1.28,1.89-1.3,4.45-.07,6.36,.44,.68,1.53,.05,1.09-.64h0Z"/>
  <path class="cls-2" d="M289.64,257.41c2.27-2.17,4.89-3.98,7.8-5.32,2.72-1.14,5.61-1.99,7.8-4.08,1.26-1,1.98-2.23,3.33-3.28,4.07-2.91,9.31-3.11,14-2.63-4.37,1.07-9.02,1.7-12.5,4.49-1.04,.92-2.02,2.38-3.18,3.33-2.44,2.23-5.62,3.21-8.74,4.01-2.86,.92-5.65,2.19-8.51,3.49h0Z"/>
  <path class="cls-2" d="M238.29,10.68c15.81,9.41,31.04,22.47,36.81,40.53,1.94,5.99,2.54,12.3,2.96,18.45,.41,6.17,.94,12.26,2.22,18.23,1.23,5.97,3.47,11.66,5.55,17.51,3.03,8.38,6.39,17.76,9.23,26.28,1.95,5.93,3.81,11.89,4.72,18.1,.85,6.24,.99,12.53,.33,18.79-.34,3.19-1.2,6.27-2.12,9.23-3.83,11.84-8.62,23.27-13.05,34.74-2.24,5.72-3.38,11.67-3.36,17.81,.07,3.18-.06,10.87,3.37,11.65,1.22-.1,2.64-1.16,3.77-1.83,2.62-1.64,5.27-3.25,7.97-4.78,5.34-3.14,11.05-6.09,17.37-6.25,3.1-.17,6.21,.07,9.26,.55-6.11-.72-12.48-.42-18.1,2.03-5.53,2.67-10.69,6.11-15.83,9.48-8.44,6.78-9.32-4.97-9.41-10.87-.53-12.67,5.48-24.24,9.67-35.83,3.05-8.6,6.88-17.17,8.12-26.21,.31-3.01,.4-6.06,.33-9.1-.07-9.21-2.53-18.1-5.39-26.8-2.77-8.51-6.05-17.84-9.03-26.24-3.23-8.74-6.18-17.74-6.92-27.1-.88-9.16-.47-18.58-3.17-27.39-5.42-17.9-20.07-31.04-35.29-41h0Z"/>
  <path class="cls-2" d="M294.96,311.25c-.96,6-1.77,12.02-2.18,18.07-.36,6.05-.35,12.12,.29,18.12,.29,3,.8,5.97,1.43,8.91,.72,2.91,1.51,5.82,2.67,8.58,1.13,2.77,2.43,5.47,4.08,7.95,1.62,2.46,3.53,4.89,5.3,7.35l10.68,14.77c1.78,2.46,3.57,4.9,5.39,7.33,1.79,2.43,3.71,4.79,5.46,7.35,3.5,5.09,6.32,10.65,8.33,16.51,1.01,2.93,1.77,5.94,2.41,8.93,.66,2.99,1.17,6.04,1.61,9.05,.85,6.04,1.47,12.08,2.49,18.02,.26,1.48,.54,2.95,.88,4.4,.35,1.45,.67,2.9,1.29,4.04,.37,.66,.74,1.51,.99,2.25,.26,.76,.48,1.49,.7,2.24,.43,1.5,.78,3.01,1.07,4.53,1.16,6.1,1.29,12.34,.71,18.47-.56,6.13-1.87,12.21-3.98,18-1,2.9-2.3,5.67-2.94,8.51-.68,2.85-.81,5.83-.54,8.78,.1,.73,.12,1.48,.27,2.21l.42,2.19c.16,.73,.38,1.44,.57,2.17,.18,.72,.39,1.44,.65,2.14l.74,2.12c.26,.7,.58,1.38,.87,2.08,.3,.69,.57,1.39,.9,2.06l1,2.02c5.46,10.79,13.2,20.29,21.23,29.38-4.2-4.39-8.38-8.82-12.11-13.64-3.77-4.78-7.3-9.78-10.22-15.17l-1.07-2.03c-.36-.68-.64-1.39-.96-2.09-.31-.7-.64-1.39-.93-2.11l-.8-2.17c-.29-.72-.51-1.45-.72-2.2-.21-.74-.45-1.48-.63-2.23l-.48-2.27c-.17-.76-.22-1.54-.33-2.31-.35-3.09-.27-6.26,.4-9.33,.29-1.55,.82-3.04,1.32-4.48,.51-1.44,1.03-2.86,1.51-4.28,1.93-5.68,3.11-11.59,3.64-17.56,.52-5.96,.36-11.99-.79-17.83-.29-1.46-.63-2.9-1.05-4.33-.21-.7-.43-1.43-.67-2.11-.25-.7-.49-1.25-.86-1.91-.83-1.55-1.16-3.11-1.53-4.6-.36-1.51-.66-3.02-.94-4.53-1.07-6.04-1.74-12.09-2.61-18.08-.41-3-.89-5.95-1.52-8.9-.61-2.95-1.33-5.84-2.28-8.67-1.9-5.65-4.59-11.04-7.94-15.99-1.66-2.46-3.56-4.84-5.36-7.31-1.81-2.45-3.59-4.92-5.36-7.39-3.55-4.94-7-9.94-10.48-14.92-1.73-2.51-3.54-4.89-5.21-7.53-1.66-2.62-2.96-5.44-4.07-8.32-1.14-2.87-1.89-5.86-2.57-8.86-.58-3.01-1.05-6.05-1.27-9.1-.46-6.1-.28-12.22,.27-18.29,.58-6.07,1.62-12.07,2.85-18.02Z"/>
  <path class="cls-2" d="M314.87,284.16c-3.15,19.76-4.94,43.01,5.78,60.81,8.55,12.2,17.41,24.27,26.34,36.23,11.9,16.09,12.82,32.51,15.41,51.44,.62,3.57,1.07,7.26,2.4,10.57,1.09,1.91,1.77,4.42,2.31,6.55,2.85,11.88,1.86,24.39-1.56,36.02-1.61,5.75-4.55,11.06-5.37,16.98-.45,2.9-.55,5.85-.43,8.79,.94,14.95,7.49,28.83,14.74,41.72-7.86-12.66-14.92-26.55-16.16-41.64-.18-3.03-.13-6.08,.27-9.11,.7-6.03,3.57-11.49,5.08-17.29,3.04-11.31,4.04-23.5,1.19-34.92-.36-1.4-.78-2.85-1.26-4.16-.52-1.27-1.47-2.84-1.76-4.23-.82-2.97-1.36-5.94-1.84-8.92-2.72-18.38-3.41-34.85-14.89-50.48-8.89-11.99-17.71-24.22-25.98-36.65-10.68-18.63-8.38-41.54-4.27-61.72h0Z"/>
  <path class="cls-2" d="M282.72,16.04c10.46,4.17,20.38,9.99,28.88,17.59,4.24,3.81,8.04,8.16,11.17,12.98,3.11,4.81,5.44,10.25,6.83,15.77,1.43,5.53,2.36,11.18,2.73,16.88,.4,5.76-.33,11.51-1.21,17.03-.41,2.76-.66,5.5-.55,8.25,.1,2.75,.48,5.51,1.16,8.2,1.28,5.41,3.7,10.54,6.74,15.28-3.5-4.41-6.28-9.47-7.94-14.95-.84-2.73-1.36-5.56-1.61-8.43-.25-2.87-.06-5.78,.25-8.59,.3-2.82,.67-5.58,.84-8.35,.09-1.38,.13-2.77,.13-4.15,.02-1.36-.08-2.74-.19-4.12-.43-5.53-1.36-11.04-2.79-16.4-2.57-10.81-8.88-20.24-16.89-27.95-8.05-7.7-17.52-13.91-27.54-19.03Z"/>
  <path class="cls-2" d="M181.1,138.81c-1.78,.33-2.77,2.7-1.86,4.14,.67,1.11,2.23,1.95,3.45,1.66,1.13-.27,2.33-1.18,2.14-2.74-.25-1.6-1.91-3.43-3.73-3.06h0Zm0,0c1.95-.31,3.81,.95,4.92,2.6,1.37,2.22-.31,5.23-2.79,5.67-2.49,.55-4.81-1.41-5.19-3.76-.27-2.08,1.14-4.05,3.07-4.51h0Z"/>
  <path class="cls-2" d="M131.41,123.52c20.18-14.2,50.57-15.53,69.59,1.46,6.32,5.43,11.22,12.4,14.26,20.01-3.99-7.14-9.2-13.52-15.52-18.48-19.28-15.65-47.21-14.22-68.33-2.98h0Z"/>
  <path class="cls-2" d="M52.17,63.91c2.73,3.28,6.25,5.91,10.24,6.74,1.96,.39,4.1,.5,6.02,.17,.93-.18,1.88-.48,2.32-1,.47-.47,.48-1.11,.17-1.99-.64-1.73-1.99-3.49-3.19-5.2-1.21-1.73-2.52-3.4-3.82-5.07-2.64-3.32-5.43-6.53-8.29-9.73,3.42,2.59,6.58,5.54,9.48,8.72,1.46,1.58,2.82,3.26,4.15,4.96,.66,.86,1.29,1.73,1.91,2.64,.61,.92,1.21,1.86,1.64,3.02,.2,.58,.36,1.24,.3,1.99-.05,.75-.42,1.5-.93,2.01-.51,.53-1.11,.86-1.69,1.08-.59,.24-1.17,.36-1.75,.45-2.31,.27-4.52,.09-6.7-.53-2.18-.6-4.15-1.77-5.81-3.19-1.65-1.46-3.02-3.17-4.05-5.06Z"/>
</svg>